<svg xmlns="http://www.w3.org/2000/svg" width="1200" height="630" viewBox="0 0 1200 630">
  <defs>
    <linearGradient id="bg" x1="0" x2="1" y1="0" y2="1">
      <stop offset="0" stop-color="#FAFAFC"/>
      <stop offset="1" stop-color="#EEF2FF"/>
    </linearGradient>
    <linearGradient id="card" x1="0" x2="1" y1="0" y2="1">
      <stop offset="0" stop-color="#FFFFFF"/>
      <stop offset="1" stop-color="#F8FAFC"/>
    </linearGradient>
  </defs>
  <rect width="1200" height="630" fill="url(#bg)"/>
  <rect x="90" y="90" rx="32" ry="32" width="1020" height="450" fill="url(#card)" stroke="#E2E8F0" stroke-width="2"/>
  <text x="140" y="200" font-family="Segoe UI, Arial" font-size="64" font-weight="800" fill="#0F172A">תשאל את דודו</text>
  <text x="140" y="270" font-family="Segoe UI, Arial" font-size="30" font-weight="600" fill="#475569">דילים ומוצרים יד שנייה באילת במחירים מיוחדים</text>
  <g transform="translate(780,170)">
    <rect x="0" y="0" rx="24" ry="24" width="260" height="260" fill="#FFFFFF" stroke="#E2E8F0" stroke-width="2"/>
    <rect x="28" y="35" rx="18" ry="18" width="204" height="120" fill="#DBEAFE"/>
    <circle cx="80" cy="105" r="18" fill="#93C5FD"/>
    <path d="M40 150 L110 90 L150 120 L210 70 L232 150 Z" fill="#60A5FA" opacity="0.9"/>
    <rect x="28" y="175" rx="14" ry="14" width="160" height="30" fill="#F1F5F9"/>
    <rect x="28" y="215" rx="14" ry="14" width="120" height="24" fill="#FFE4E6"/>
    <text x="40" y="232" font-family="Segoe UI, Arial" font-size="16" font-weight="800" fill="#BE123C">🎗️ דיל מיוחד</text>
  </g>
</svg>


